<svg id="レイヤー_1" data-name="レイヤー 1" xmlns="http://www.w3.org/2000/svg" width="51.15mm" height="8.07mm" viewBox="0 0 145 22.87"><defs><style>.cls-1{fill:#fff;}</style></defs><path class="cls-1" d="M0,.23H8.43V22.56H0ZM5.08,13.86,23,.23H33.63L6.16,19.33Zm7.44-2.59L19.78,9,35.5,22.56h-10Z" transform="translate(0 0.05)"/><path class="cls-1" d="M53.22.23h5.35L75.68,22.56H66.6L55.9,7.29,45.19,22.56H36.12ZM44.33,16.45H67.86v4.11H44.33Z" transform="translate(0 0.05)"/><path class="cls-1" d="M108.52,10.09v4.37a5.9,5.9,0,0,1-2,4.39,13.6,13.6,0,0,1-5.71,2.93,31.61,31.61,0,0,1-8.55,1,34.34,34.34,0,0,1-8.63-1A14.23,14.23,0,0,1,77.85,19a5.29,5.29,0,0,1-2-4.13V8.28a5.8,5.8,0,0,1,2-4.38A13.58,13.58,0,0,1,83.5,1a31.61,31.61,0,0,1,8.55-1,31.13,31.13,0,0,1,7.39.82,17.77,17.77,0,0,1,5.64,2.33,7.74,7.74,0,0,1,3.06,3.49H99a3.65,3.65,0,0,0-1.53-1.22A9.9,9.9,0,0,0,95,4.59a16.73,16.73,0,0,0-3-.26,14.26,14.26,0,0,0-4,.49,6.18,6.18,0,0,0-2.65,1.4,2.81,2.81,0,0,0-.93,2.09v6.6a2.31,2.31,0,0,0,1,1.84A6.62,6.62,0,0,0,88.15,18a16.78,16.78,0,0,0,4.06.43,14.6,14.6,0,0,0,4-.47,5.88,5.88,0,0,0,2.63-1.36,2.8,2.8,0,0,0,.92-2.1v-.37H93V10.05Z" transform="translate(0 0.05)"/><path class="cls-1" d="M119.8,21.85A12.41,12.41,0,0,1,114.23,19a6.11,6.11,0,0,1-1.9-4.5V.23h8.43V14.61a3.26,3.26,0,0,0,2.06,3,12.89,12.89,0,0,0,5.81,1.06,13.1,13.1,0,0,0,5.86-1.06,3.27,3.27,0,0,0,2.08-3V.23H145V14.5a6,6,0,0,1-1.93,4.5,12.53,12.53,0,0,1-5.59,2.85,40.87,40.87,0,0,1-17.68,0Z" transform="translate(0 0.05)"/></svg>